<mxfile host="app.diagrams.net" agent="Mozilla/5.0 (Windows NT 10.0; Win64; x64) AppleWebKit/537.36 (KHTML, like Gecko) Chrome/129.0.0.0 Safari/537.36" version="24.7.10">
  <diagram name="PÃ¡gina-1" id="K40sHRZKKeaAZVXeroag">
    <mxGraphModel dx="989" dy="538" grid="1" gridSize="10" guides="1" tooltips="1" connect="1" arrows="1" fold="1" page="1" pageScale="1" pageWidth="827" pageHeight="1169" math="0" shadow="0">
      <root>
        <mxCell id="0" />
        <mxCell id="1" parent="0" />
        <mxCell id="U9oYw-cF4gG4Ug27BgcB-1" value="Projeto:&amp;nbsp;Sistema de Turmas e Atividades&lt;div&gt;DER (Diagrama de Entidades e Relacioamento)&amp;nbsp;&lt;/div&gt;&lt;div&gt;MER - Modelo Conceitual&lt;/div&gt;" style="text;html=1;align=center;verticalAlign=middle;whiteSpace=wrap;rounded=0;" vertex="1" parent="1">
          <mxGeometry x="279" y="30" width="270" height="50" as="geometry" />
        </mxCell>
        <mxCell id="U9oYw-cF4gG4Ug27BgcB-23" style="rounded=0;orthogonalLoop=1;jettySize=auto;html=1;exitX=0.5;exitY=1;exitDx=0;exitDy=0;entryX=0.5;entryY=0;entryDx=0;entryDy=0;endArrow=none;endFill=0;" edge="1" parent="1" source="U9oYw-cF4gG4Ug27BgcB-2" target="U9oYw-cF4gG4Ug27BgcB-11">
          <mxGeometry relative="1" as="geometry" />
        </mxCell>
        <mxCell id="U9oYw-cF4gG4Ug27BgcB-2" value="Professor" style="whiteSpace=wrap;html=1;align=center;fillColor=#fff2cc;strokeColor=#d6b656;" vertex="1" parent="1">
          <mxGeometry x="110" y="210" width="100" height="40" as="geometry" />
        </mxCell>
        <mxCell id="U9oYw-cF4gG4Ug27BgcB-3" value="Turma" style="whiteSpace=wrap;html=1;align=center;fillColor=#fff2cc;strokeColor=#d6b656;" vertex="1" parent="1">
          <mxGeometry x="364" y="210" width="100" height="40" as="geometry" />
        </mxCell>
        <mxCell id="U9oYw-cF4gG4Ug27BgcB-4" value="Atividade" style="whiteSpace=wrap;html=1;align=center;fillColor=#fff2cc;strokeColor=#d6b656;" vertex="1" parent="1">
          <mxGeometry x="610" y="210" width="100" height="40" as="geometry" />
        </mxCell>
        <mxCell id="U9oYw-cF4gG4Ug27BgcB-7" value="1" style="edgeStyle=orthogonalEdgeStyle;rounded=0;orthogonalLoop=1;jettySize=auto;html=1;exitX=0;exitY=0.5;exitDx=0;exitDy=0;entryX=1;entryY=0.5;entryDx=0;entryDy=0;endArrow=none;endFill=0;" edge="1" parent="1" source="U9oYw-cF4gG4Ug27BgcB-5" target="U9oYw-cF4gG4Ug27BgcB-2">
          <mxGeometry relative="1" as="geometry" />
        </mxCell>
        <mxCell id="U9oYw-cF4gG4Ug27BgcB-5" value="ministra" style="shape=rhombus;perimeter=rhombusPerimeter;whiteSpace=wrap;html=1;align=center;fillColor=#f8cecc;strokeColor=#b85450;" vertex="1" parent="1">
          <mxGeometry x="250" y="210" width="80" height="40" as="geometry" />
        </mxCell>
        <mxCell id="U9oYw-cF4gG4Ug27BgcB-6" value="possui" style="shape=rhombus;perimeter=rhombusPerimeter;whiteSpace=wrap;html=1;align=center;fillColor=#f8cecc;strokeColor=#b85450;" vertex="1" parent="1">
          <mxGeometry x="500" y="210" width="80" height="40" as="geometry" />
        </mxCell>
        <mxCell id="U9oYw-cF4gG4Ug27BgcB-8" value="N" style="edgeStyle=orthogonalEdgeStyle;rounded=0;orthogonalLoop=1;jettySize=auto;html=1;exitX=0;exitY=0.5;exitDx=0;exitDy=0;entryX=1;entryY=0.5;entryDx=0;entryDy=0;endArrow=none;endFill=0;" edge="1" parent="1" source="U9oYw-cF4gG4Ug27BgcB-3" target="U9oYw-cF4gG4Ug27BgcB-5">
          <mxGeometry relative="1" as="geometry">
            <mxPoint x="220" y="240" as="sourcePoint" />
            <mxPoint x="190" y="240" as="targetPoint" />
          </mxGeometry>
        </mxCell>
        <mxCell id="U9oYw-cF4gG4Ug27BgcB-9" value="N" style="edgeStyle=orthogonalEdgeStyle;rounded=0;orthogonalLoop=1;jettySize=auto;html=1;exitX=0;exitY=0.5;exitDx=0;exitDy=0;endArrow=none;endFill=0;entryX=1;entryY=0.5;entryDx=0;entryDy=0;" edge="1" parent="1" source="U9oYw-cF4gG4Ug27BgcB-4" target="U9oYw-cF4gG4Ug27BgcB-6">
          <mxGeometry relative="1" as="geometry">
            <mxPoint x="490" y="240" as="sourcePoint" />
            <mxPoint x="690" y="230" as="targetPoint" />
          </mxGeometry>
        </mxCell>
        <mxCell id="U9oYw-cF4gG4Ug27BgcB-10" value="1" style="edgeStyle=orthogonalEdgeStyle;rounded=0;orthogonalLoop=1;jettySize=auto;html=1;exitX=0;exitY=0.5;exitDx=0;exitDy=0;endArrow=none;endFill=0;entryX=1;entryY=0.5;entryDx=0;entryDy=0;" edge="1" parent="1" source="U9oYw-cF4gG4Ug27BgcB-6" target="U9oYw-cF4gG4Ug27BgcB-3">
          <mxGeometry relative="1" as="geometry">
            <mxPoint x="620" y="240" as="sourcePoint" />
            <mxPoint x="600" y="240" as="targetPoint" />
          </mxGeometry>
        </mxCell>
        <mxCell id="U9oYw-cF4gG4Ug27BgcB-11" value="id" style="ellipse;whiteSpace=wrap;html=1;align=center;fontStyle=4;fillColor=#ffe6cc;strokeColor=#d79b00;" vertex="1" parent="1">
          <mxGeometry x="20" y="290" width="90" height="30" as="geometry" />
        </mxCell>
        <mxCell id="U9oYw-cF4gG4Ug27BgcB-12" value="nome" style="ellipse;whiteSpace=wrap;html=1;align=center;fillColor=#ffe6cc;strokeColor=#d79b00;" vertex="1" parent="1">
          <mxGeometry x="60" y="330" width="90" height="30" as="geometry" />
        </mxCell>
        <mxCell id="U9oYw-cF4gG4Ug27BgcB-13" value="email" style="ellipse;whiteSpace=wrap;html=1;align=center;fillColor=#ffe6cc;strokeColor=#d79b00;" vertex="1" parent="1">
          <mxGeometry x="160" y="330" width="90" height="30" as="geometry" />
        </mxCell>
        <mxCell id="U9oYw-cF4gG4Ug27BgcB-14" value="senha" style="ellipse;whiteSpace=wrap;html=1;align=center;fillColor=#ffe6cc;strokeColor=#d79b00;" vertex="1" parent="1">
          <mxGeometry x="210" y="290" width="86" height="30" as="geometry" />
        </mxCell>
        <mxCell id="U9oYw-cF4gG4Ug27BgcB-16" value="nome" style="ellipse;whiteSpace=wrap;html=1;align=center;fillColor=#ffe6cc;strokeColor=#d79b00;" vertex="1" parent="1">
          <mxGeometry x="374" y="120" width="90" height="30" as="geometry" />
        </mxCell>
        <mxCell id="U9oYw-cF4gG4Ug27BgcB-18" value="&lt;span style=&quot;border-bottom: 1px dotted&quot;&gt;idprofessor&lt;/span&gt;" style="ellipse;whiteSpace=wrap;html=1;align=center;fillColor=#ffe6cc;strokeColor=#d79b00;" vertex="1" parent="1">
          <mxGeometry x="440" y="150" width="90" height="30" as="geometry" />
        </mxCell>
        <mxCell id="U9oYw-cF4gG4Ug27BgcB-19" value="id" style="ellipse;whiteSpace=wrap;html=1;align=center;fontStyle=4;fillColor=#ffe6cc;strokeColor=#d79b00;" vertex="1" parent="1">
          <mxGeometry x="310" y="150" width="90" height="30" as="geometry" />
        </mxCell>
        <mxCell id="U9oYw-cF4gG4Ug27BgcB-20" value="id" style="ellipse;whiteSpace=wrap;html=1;align=center;fontStyle=4;fillColor=#ffe6cc;strokeColor=#d79b00;" vertex="1" parent="1">
          <mxGeometry x="549" y="270" width="90" height="30" as="geometry" />
        </mxCell>
        <mxCell id="U9oYw-cF4gG4Ug27BgcB-21" value="&lt;span style=&quot;border-bottom: 1px dotted&quot;&gt;idturma&lt;/span&gt;" style="ellipse;whiteSpace=wrap;html=1;align=center;fillColor=#ffe6cc;strokeColor=#d79b00;" vertex="1" parent="1">
          <mxGeometry x="690" y="270" width="90" height="30" as="geometry" />
        </mxCell>
        <mxCell id="U9oYw-cF4gG4Ug27BgcB-22" value="descricao" style="ellipse;whiteSpace=wrap;html=1;align=center;fillColor=#ffe6cc;strokeColor=#d79b00;" vertex="1" parent="1">
          <mxGeometry x="617" y="300" width="86" height="30" as="geometry" />
        </mxCell>
        <mxCell id="U9oYw-cF4gG4Ug27BgcB-24" style="rounded=0;orthogonalLoop=1;jettySize=auto;html=1;exitX=0.5;exitY=1;exitDx=0;exitDy=0;entryX=0.5;entryY=0;entryDx=0;entryDy=0;endArrow=none;endFill=0;" edge="1" parent="1" source="U9oYw-cF4gG4Ug27BgcB-2" target="U9oYw-cF4gG4Ug27BgcB-12">
          <mxGeometry relative="1" as="geometry">
            <mxPoint x="170" y="260" as="sourcePoint" />
            <mxPoint x="75" y="300" as="targetPoint" />
          </mxGeometry>
        </mxCell>
        <mxCell id="U9oYw-cF4gG4Ug27BgcB-25" style="rounded=0;orthogonalLoop=1;jettySize=auto;html=1;exitX=0.5;exitY=1;exitDx=0;exitDy=0;entryX=0.5;entryY=0;entryDx=0;entryDy=0;endArrow=none;endFill=0;" edge="1" parent="1" source="U9oYw-cF4gG4Ug27BgcB-2" target="U9oYw-cF4gG4Ug27BgcB-13">
          <mxGeometry relative="1" as="geometry">
            <mxPoint x="170" y="260" as="sourcePoint" />
            <mxPoint x="115" y="340" as="targetPoint" />
          </mxGeometry>
        </mxCell>
        <mxCell id="U9oYw-cF4gG4Ug27BgcB-26" style="rounded=0;orthogonalLoop=1;jettySize=auto;html=1;exitX=0.5;exitY=1;exitDx=0;exitDy=0;entryX=0.5;entryY=0;entryDx=0;entryDy=0;endArrow=none;endFill=0;" edge="1" parent="1" source="U9oYw-cF4gG4Ug27BgcB-2" target="U9oYw-cF4gG4Ug27BgcB-14">
          <mxGeometry relative="1" as="geometry">
            <mxPoint x="170" y="260" as="sourcePoint" />
            <mxPoint x="215" y="340" as="targetPoint" />
          </mxGeometry>
        </mxCell>
        <mxCell id="U9oYw-cF4gG4Ug27BgcB-27" style="rounded=0;orthogonalLoop=1;jettySize=auto;html=1;exitX=0.5;exitY=0;exitDx=0;exitDy=0;entryX=0.5;entryY=1;entryDx=0;entryDy=0;endArrow=none;endFill=0;" edge="1" parent="1" source="U9oYw-cF4gG4Ug27BgcB-3" target="U9oYw-cF4gG4Ug27BgcB-19">
          <mxGeometry relative="1" as="geometry">
            <mxPoint x="170" y="260" as="sourcePoint" />
            <mxPoint x="263" y="300" as="targetPoint" />
          </mxGeometry>
        </mxCell>
        <mxCell id="U9oYw-cF4gG4Ug27BgcB-28" style="rounded=0;orthogonalLoop=1;jettySize=auto;html=1;exitX=0.56;exitY=0;exitDx=0;exitDy=0;entryX=0.5;entryY=1;entryDx=0;entryDy=0;endArrow=none;endFill=0;exitPerimeter=0;" edge="1" parent="1" source="U9oYw-cF4gG4Ug27BgcB-3" target="U9oYw-cF4gG4Ug27BgcB-16">
          <mxGeometry relative="1" as="geometry">
            <mxPoint x="424" y="220" as="sourcePoint" />
            <mxPoint x="385" y="190" as="targetPoint" />
          </mxGeometry>
        </mxCell>
        <mxCell id="U9oYw-cF4gG4Ug27BgcB-29" style="rounded=0;orthogonalLoop=1;jettySize=auto;html=1;entryX=0.5;entryY=1;entryDx=0;entryDy=0;endArrow=none;endFill=0;" edge="1" parent="1" target="U9oYw-cF4gG4Ug27BgcB-18">
          <mxGeometry relative="1" as="geometry">
            <mxPoint x="430" y="210" as="sourcePoint" />
            <mxPoint x="449" y="160" as="targetPoint" />
          </mxGeometry>
        </mxCell>
        <mxCell id="U9oYw-cF4gG4Ug27BgcB-30" style="rounded=0;orthogonalLoop=1;jettySize=auto;html=1;exitX=0.5;exitY=1;exitDx=0;exitDy=0;entryX=0.5;entryY=0;entryDx=0;entryDy=0;endArrow=none;endFill=0;" edge="1" parent="1" source="U9oYw-cF4gG4Ug27BgcB-4" target="U9oYw-cF4gG4Ug27BgcB-20">
          <mxGeometry relative="1" as="geometry">
            <mxPoint x="433" y="222" as="sourcePoint" />
            <mxPoint x="515" y="190" as="targetPoint" />
          </mxGeometry>
        </mxCell>
        <mxCell id="U9oYw-cF4gG4Ug27BgcB-31" style="rounded=0;orthogonalLoop=1;jettySize=auto;html=1;exitX=0.5;exitY=1;exitDx=0;exitDy=0;entryX=0.5;entryY=0;entryDx=0;entryDy=0;endArrow=none;endFill=0;" edge="1" parent="1" source="U9oYw-cF4gG4Ug27BgcB-4" target="U9oYw-cF4gG4Ug27BgcB-22">
          <mxGeometry relative="1" as="geometry">
            <mxPoint x="670" y="260" as="sourcePoint" />
            <mxPoint x="604" y="280" as="targetPoint" />
          </mxGeometry>
        </mxCell>
        <mxCell id="U9oYw-cF4gG4Ug27BgcB-32" style="rounded=0;orthogonalLoop=1;jettySize=auto;html=1;exitX=0.5;exitY=1;exitDx=0;exitDy=0;entryX=0.5;entryY=0;entryDx=0;entryDy=0;endArrow=none;endFill=0;" edge="1" parent="1" source="U9oYw-cF4gG4Ug27BgcB-4" target="U9oYw-cF4gG4Ug27BgcB-21">
          <mxGeometry relative="1" as="geometry">
            <mxPoint x="670" y="260" as="sourcePoint" />
            <mxPoint x="670" y="310" as="targetPoint" />
          </mxGeometry>
        </mxCell>
      </root>
    </mxGraphModel>
  </diagram>
</mxfile>
